<?xml version="1.0" encoding="utf-8"?>
<!-- Generator: Adobe Illustrator 25.2.3, SVG Export Plug-In . SVG Version: 6.00 Build 0)  -->
<svg version="1.1" id="Layer_2" xmlns="http://www.w3.org/2000/svg" xmlns:xlink="http://www.w3.org/1999/xlink" x="0px" y="0px"
	 viewBox="0 0 23.9 24" style="enable-background:new 0 0 23.9 24;" xml:space="preserve">
<style type="text/css">
	.st0{fill:#25D366;}
	.st1{fill:#FFFFFF;}
</style>
<g>
	<circle class="st0" cx="11.9" cy="12" r="11.7"/>
	<g id="Layer_2_2_">
		<g id="Layer_1-2_1_">
			<path class="st1" d="M4.4,19.6l1.1-3.9C3.4,12.1,4.6,7.5,8.2,5.4s8.2-0.8,10.3,2.8s0.8,8.2-2.8,10.3c-2.3,1.3-5,1.3-7.3,0.1
				L4.4,19.6z M8.6,17.2c2.9,1.9,6.8,1.1,8.7-1.8s1.1-6.8-1.8-8.7S8.6,5.6,6.7,8.5c-0.7,1-1,2.2-1,3.4c0,1.3,0.4,2.5,1.1,3.6
				l-0.6,2.3L8.6,17.2z M15.8,13.7c0-0.1-0.2-0.1-0.4-0.2c-0.2-0.1-1.1-0.6-1.3-0.6s-0.3-0.1-0.4,0.1c-0.2,0.3-0.4,0.5-0.6,0.7
				c-0.1,0.1-0.2,0.1-0.4,0c-0.6-0.2-1.1-0.5-1.5-0.9c-0.4-0.4-0.8-0.8-1-1.3c-0.1-0.2,0-0.3,0.1-0.4c0.1-0.1,0.2-0.2,0.3-0.3
				c0.1-0.1,0.1-0.2,0.2-0.3c0.1-0.1,0.1-0.2,0-0.3c-0.1-0.1-0.5-1-0.6-1.4S9.8,8.4,9.7,8.4H9.3C9.1,8.4,9,8.5,8.8,8.6
				c-0.4,0.4-0.7,1-0.6,1.6c0.1,0.7,0.3,1.4,0.8,2c0.8,1.2,1.9,2.2,3.2,2.9c0.4,0.2,0.7,0.3,1.1,0.4c0.4,0.1,0.8,0.1,1.2,0.1
				c0.5-0.1,1-0.4,1.3-0.9C15.9,14.3,15.9,14,15.8,13.7z"/>
		</g>
	</g>
</g>
</svg>
